<?xml version="1.0" encoding="UTF-8"?>
<svg width="112px" height="112px" viewBox="0 0 112 112" version="1.1" xmlns="http://www.w3.org/2000/svg" xmlns:xlink="http://www.w3.org/1999/xlink">
    <!-- Generator: Sketch 46.2 (44496) - http://www.bohemiancoding.com/sketch -->
    <title>Apply</title>
    <desc>Created with Sketch.</desc>
    <defs></defs>
    <g id="Desktop" stroke="none" stroke-width="1" fill="none" fill-rule="evenodd">
        <g id="Product-page---3" transform="translate(-596.000000, -628.000000)" fill="#FFFFFF">
            <g id="Section-4" transform="translate(281.000000, 579.000000)">
                <g id="Group-11" transform="translate(86.000000, 49.000000)">
                    <g id="Apply" transform="translate(229.000000, 0.000000)">
                        <path d="M107.060403,57.0137993 C106.379514,57.0137993 105.825566,56.4598524 105.825566,55.7789646 C105.825566,55.0978298 106.379514,54.5441299 107.060403,54.5441299 C107.741293,54.5441299 108.295241,55.0978298 108.295241,55.7789646 C108.295241,56.4598524 107.741293,57.0137993 107.060403,57.0137993 L107.060403,57.0137993 Z M57.6313437,61.953138 L61.9532746,61.953138 L61.9532746,57.6312166 L57.6313437,57.6312166 L57.6313437,61.953138 Z M49.6049005,61.953138 L53.9268315,61.953138 L53.9268315,57.6312166 L49.6049005,57.6312166 L49.6049005,61.953138 Z M49.6049005,53.9267126 L53.9268315,53.9267126 L53.9268315,49.6047912 L49.6049005,49.6047912 L49.6049005,53.9267126 Z M57.6313437,53.9267126 L61.9532746,53.9267126 L61.9532746,49.6047912 L57.6313437,49.6047912 L57.6313437,53.9267126 Z M80.3879154,71.0909147 C80.3879154,71.7718025 79.8339673,72.3257494 79.1530779,72.3257494 C78.4721886,72.3257494 77.9182405,71.7718025 77.9182405,71.0909147 C77.9182405,70.4097799 78.4721886,69.85608 79.1530779,69.85608 C79.8339673,69.85608 80.3879154,70.4097799 80.3879154,71.0909147 L80.3879154,71.0909147 Z M72.3259089,79.1529034 C72.3259089,79.8335443 71.7719608,80.3877381 71.0910715,80.3877381 C70.4101821,80.3877381 69.8562341,79.8335443 69.8562341,79.1529034 C69.8562341,78.4720156 70.4101821,77.9180687 71.0910715,77.9180687 C71.7719608,77.9180687 72.3259089,78.4720156 72.3259089,79.1529034 L72.3259089,79.1529034 Z M55.7790876,108.295002 C55.0981982,108.295002 54.5442502,107.740808 54.5442502,107.060167 C54.5442502,106.379279 55.0981982,105.825333 55.7790876,105.825333 C56.4599769,105.825333 57.013925,106.379279 57.013925,107.060167 C57.013925,107.740808 56.4599769,108.295002 55.7790876,108.295002 L55.7790876,108.295002 Z M40.9086816,90.4242275 C40.2277922,90.4242275 39.6738442,89.8705276 39.6738442,89.1893928 C39.6738442,88.5085049 40.2277922,87.9545581 40.9086816,87.9545581 C41.5895709,87.9545581 42.143519,88.5085049 42.143519,89.1893928 C42.143519,89.8705276 41.5893239,90.4242275 40.9086816,90.4242275 L40.9086816,90.4242275 Z M32.8466751,72.3257494 C32.1657857,72.3257494 31.6118377,71.7718025 31.6118377,71.0909147 C31.6118377,70.4097799 32.1657857,69.85608 32.8466751,69.85608 C33.5275644,69.85608 34.0815125,70.4097799 34.0815125,71.0909147 C34.0815125,71.7718025 33.5275644,72.3257494 32.8466751,72.3257494 L32.8466751,72.3257494 Z M4.93934964,57.0137993 C4.25846029,57.0137993 3.70451223,56.4598524 3.70451223,55.7789646 C3.70451223,55.0978298 4.25846029,54.5441299 4.93934964,54.5441299 C5.62023899,54.5441299 6.17418705,55.0978298 6.17418705,55.7789646 C6.17418705,56.4598524 5.62023899,57.0137993 4.93934964,57.0137993 L4.93934964,57.0137993 Z M22.8096697,42.1431791 C22.1287803,42.1431791 21.5748322,41.5894792 21.5748322,40.9083444 C21.5748322,40.2274565 22.1287803,39.6735097 22.8096697,39.6735097 C23.490559,39.6735097 24.0445071,40.2274565 24.0445071,40.9083444 C24.0445071,41.5894792 23.490559,42.1431791 22.8096697,42.1431791 L22.8096697,42.1431791 Z M39.6738442,22.8098663 C39.6738442,22.1287315 40.2277922,21.5750316 40.9086816,21.5750316 C41.5895709,21.5750316 42.143519,22.1287315 42.143519,22.8098663 C42.143519,23.4907542 41.5895709,24.044701 40.9086816,24.044701 C40.2277922,24.044701 39.6738442,23.4907542 39.6738442,22.8098663 L39.6738442,22.8098663 Z M55.7790876,3.70450406 C56.4599769,3.70450406 57.013925,4.2584509 57.013925,4.93933875 C57.013925,5.61997963 56.4599769,6.17417343 55.7790876,6.17417343 C55.0981982,6.17417343 54.5442502,5.61997963 54.5442502,4.93933875 C54.5442502,4.2584509 55.0984452,3.70450406 55.7790876,3.70450406 L55.7790876,3.70450406 Z M71.0910715,31.611768 C71.7719608,31.611768 72.3259089,32.1657148 72.3259089,32.8466027 C72.3259089,33.5272435 71.7719608,34.0814373 71.0910715,34.0814373 C70.4101821,34.0814373 69.8562341,33.5272435 69.8562341,32.8466027 C69.8562341,32.1657148 70.4104291,31.611768 71.0910715,31.611768 L71.0910715,31.611768 Z M89.1898364,39.6735097 C89.8707258,39.6735097 90.4246738,40.2274565 90.4246738,40.9083444 C90.4246738,41.5894792 89.8707258,42.1431791 89.1898364,42.1431791 C88.5089471,42.1431791 87.954999,41.5894792 87.954999,40.9083444 C87.954999,40.2274565 88.5089471,39.6735097 89.1898364,39.6735097 L89.1898364,39.6735097 Z M107.060403,50.8396258 C104.992051,50.8396258 103.219318,52.1189146 102.48459,53.9267126 L65.6577869,53.9267126 L65.6577869,49.6047912 L81.9220773,49.6047912 C82.4132957,49.6047912 82.8842627,49.4096873 83.2319929,49.0622048 L86.9762669,45.3179391 C87.6430791,45.6540611 88.3933663,45.8476831 89.1895894,45.8476831 C91.9131468,45.8476831 94.1289391,43.6318958 94.1289391,40.9083444 C94.1289391,38.18504 91.9131468,35.9690056 89.1895894,35.9690056 C86.466032,35.9690056 84.2502398,38.18504 84.2502398,40.9083444 C84.2502398,41.4761214 84.3512495,42.0189547 84.5280782,42.5269657 L81.1549964,45.9002871 L65.6577869,45.9002871 L65.6577869,40.7757232 L69.0800153,37.3535023 C69.6952113,37.6291174 70.3746188,37.7856944 71.0910715,37.7856944 C73.8146289,37.7856944 76.0304211,35.5699071 76.0304211,32.8463557 C76.0304211,30.1225573 73.8146289,27.9070169 71.0910715,27.9070169 C68.3675141,27.9070169 66.1517218,30.1225573 66.1517218,32.8463557 C66.1517218,33.4958787 66.2811328,34.1152718 66.5100716,34.6842836 L62.4956152,38.6987312 C62.1483789,39.0457198 61.9532746,39.5169327 61.9532746,40.0083969 L61.9532746,45.9000401 L57.6313437,45.9000401 L57.6313437,9.51514216 C59.4391457,8.78041552 60.7184372,7.00793381 60.7184372,4.93933875 C60.7184372,2.21554039 58.502645,0 55.7790876,0 C53.0555302,0 50.8397379,2.21554039 50.8397379,4.93933875 C50.8397379,7.00768685 52.1190295,8.78016855 53.9268315,9.51514216 L53.9268315,45.9005341 L49.6049005,45.9005341 L49.6049005,30.0776094 C49.6049005,29.5861452 49.4097962,29.1149322 49.06256,28.7679437 L45.317792,25.023678 C45.6539148,24.3568672 45.8477842,23.6063347 45.8477842,22.8101133 C45.8477842,20.0865619 43.631992,17.8707746 40.9084346,17.8707746 C38.1848772,17.8707746 35.969085,20.0865619 35.969085,22.8101133 C35.969085,25.5334177 38.1848772,27.749452 40.9084346,27.749452 C41.4757189,27.749452 42.0188004,27.6484426 42.5268125,27.4716142 L45.9003883,30.8446887 L45.9003883,45.9005341 L30.8445097,45.9005341 L27.4711809,42.5269657 C27.6480096,42.0189547 27.7490193,41.4761214 27.7490193,40.9083444 C27.7490193,38.18504 25.533227,35.9690056 22.8096697,35.9690056 C20.0861123,35.9690056 17.87032,38.18504 17.87032,40.9083444 C17.87032,43.6318958 20.0861123,45.8476831 22.8096697,45.8476831 C23.6058928,45.8476831 24.356427,45.6540611 25.0232392,45.3179391 L28.7675132,49.0624518 C29.1149964,49.4096873 29.5859634,49.6050381 30.0774287,49.6050381 L45.9003883,49.6050381 L45.9003883,53.9269595 L9.51516314,53.9269595 C8.78068185,52.1191615 7.00794927,50.8398728 4.93934964,50.8398728 C2.21579225,50.8398728 0,53.0556602 0,55.7792116 C0,58.502516 2.21579225,60.7185503 4.93934964,60.7185503 C7.0077023,60.7185503 8.78043488,59.4390146 9.51516314,57.6314636 L45.9006353,57.6314636 L45.9006353,61.953385 L40.0087321,61.953385 C39.5175137,61.953385 39.0465468,62.1484889 38.6988165,62.4957244 L34.6846071,66.509925 C34.115841,66.2809866 33.4964465,66.1518229 32.8466751,66.1518229 C30.1231177,66.1518229 27.9073255,68.3676103 27.9073255,71.0911617 C27.9073255,73.8144661 30.1231177,76.0305004 32.8466751,76.0305004 C35.5702325,76.0305004 37.7860247,73.8144661 37.7860247,71.0911617 C37.7860247,70.3747106 37.6292004,69.6953045 37.3538316,69.0798629 L40.77606,65.6578891 L45.9006353,65.6578891 L45.9006353,81.1550644 L42.5270595,84.5281388 C42.0192943,84.3513105 41.4762128,84.250301 40.9086816,84.250301 C38.1851242,84.250301 35.9693319,86.4663353 35.9693319,89.1896397 C35.9693319,91.9131911 38.1851242,94.1289785 40.9086816,94.1289785 C43.632239,94.1289785 45.8480312,91.9131911 45.8480312,89.1896397 C45.8480312,88.3936653 45.6541617,87.6428858 45.318039,86.9760751 L49.0628069,83.2318093 C49.4100432,82.8848208 49.6051475,82.4136079 49.6051475,81.9221437 L49.6051475,65.658136 L53.9270784,65.658136 L53.9270784,102.484611 C52.1192765,103.219338 50.8399849,104.992066 50.8399849,107.060661 C50.8399849,109.784213 53.0557772,112 55.7793346,112 C58.5028919,112 60.7186842,109.784213 60.7186842,107.060661 C60.7186842,104.992313 59.4393926,103.219584 57.6315907,102.484611 L57.6315907,65.6576421 L61.9535216,65.6576421 L61.9535216,71.9908622 C61.9535216,72.4820795 62.1486259,72.9532924 62.4958622,73.3002809 L66.5103186,77.3147285 C66.2813798,77.8837403 66.1519688,78.5031334 66.1519688,79.1529034 C66.1519688,81.8764548 68.367761,84.0922422 71.0913184,84.0922422 C73.8148758,84.0922422 76.0306681,81.8764548 76.0306681,79.1529034 C76.0306681,76.4291051 73.8148758,74.2135647 71.0913184,74.2135647 C70.3748658,74.2135647 69.6954582,74.3701417 69.0802622,74.6457568 L65.6580338,71.223289 L65.6580338,65.6576421 L71.22394,65.6576421 L74.6461684,69.079616 C74.3705527,69.6950576 74.2139753,70.3744636 74.2139753,71.0909147 C74.2139753,73.8142191 76.4297675,76.0302534 79.1533249,76.0302534 C81.8768823,76.0302534 84.0926745,73.8142191 84.0926745,71.0909147 C84.0926745,68.3673633 81.8768823,66.151576 79.1533249,66.151576 C78.5035535,66.151576 77.884159,66.2807397 77.3153929,66.509678 L73.3011835,62.4954774 C72.9537002,62.1484889 72.4827332,61.953138 71.9912679,61.953138 L65.6580338,61.953138 L65.6580338,57.6312166 L102.484837,57.6312166 C103.219318,59.4387676 104.992051,60.7183033 107.06065,60.7183033 C109.784208,60.7183033 112,58.502269 112,55.7789646 C112,53.0554132 109.783961,50.8396258 107.060403,50.8396258 L107.060403,50.8396258 Z" id="Fill-1"></path>
                    </g>
                </g>
            </g>
        </g>
    </g>
</svg>