<?xml version="1.0" encoding="UTF-8"?>
<svg width="49px" height="54px" viewBox="0 0 49 54" version="1.1" xmlns="http://www.w3.org/2000/svg" xmlns:xlink="http://www.w3.org/1999/xlink">
    <!-- Generator: Sketch 46.2 (44496) - http://www.bohemiancoding.com/sketch -->
    <title>Track</title>
    <desc>Created with Sketch.</desc>
    <defs></defs>
    <g id="Desktop" stroke="none" stroke-width="1" fill="none" fill-rule="evenodd">
        <g id="Product-page---2" transform="translate(-442.000000, -410.000000)" fill="#4A4A4A">
            <g id="Track" transform="translate(442.000000, 410.000000)">
                <polygon id="Fill-1" points="41 54 43 54 43 30 41 30"></polygon>
                <path d="M1.78212522,41.401978 L1.78212522,21.6951824 C1.78212522,10.896844 10.7817142,1.80834725 21.3853381,1.80834725 L21.3853381,0.00866373626 C9.80159469,0.00866373626 4.700813e-05,9.90704176 4.700813e-05,21.6951824 L4.700813e-05,42.3018198 C4.700813e-05,42.8418198 0.356368634,43.2016615 0.891086114,43.2016615 L19.6031424,43.2016615 L19.6031424,54 L21.3853381,54 L21.3853381,43.2016615 L24.9494945,43.2016615 L24.9494945,41.401978 L20.494299,41.401978 L1.78212522,41.401978 Z" id="Fill-2"></path>
                <path d="M8.91055559,20.7052971 L8.91055559,27.9041499 C8.91055559,28.4440312 9.26699473,28.8039916 9.80159469,28.8039916 L13.3658686,28.8039916 L13.3658686,27.0043081 L10.6926338,27.0043081 L10.6926338,20.7052971 L8.91055559,20.7052971 Z" id="Fill-4"></path>
                <path d="M33.8600384,27.0043319 C26.9989667,27.0043319 21.3852558,21.3351626 21.3852558,14.4063099 C21.3852558,7.47745714 26.9989667,1.80828791 33.8600384,1.80828791 C40.7212275,1.80828791 46.3348209,7.47745714 46.3348209,14.4063099 C46.3348209,21.3351626 40.7212275,27.0043319 33.8600384,27.0043319 M33.8600384,0.0086043956 C26.0187297,0.0086043956 19.6031776,6.48753626 19.6031776,14.4063099 C19.6031776,22.3249648 26.0187297,28.8040154 33.8600384,28.8040154 C41.701347,28.8040154 48.1168991,22.3249648 48.1168991,14.4063099 C48.1168991,6.48753626 41.701347,0.0086043956 33.8600384,0.0086043956" id="Fill-6"></path>
                <path d="M34.751101,23.3148976 L34.751101,20.7053327 L32.9690228,20.7053327 L32.9690228,23.3148976 C28.7810685,22.8649767 25.3950728,19.535491 25.0386337,15.3061635 L27.6226706,15.3061635 L27.6226706,13.5063613 L25.0386337,13.5063613 C25.4841532,9.27715253 28.7810685,5.85758769 32.9690228,5.49774593 L32.9690228,8.10731077 L34.751101,8.10731077 L34.751101,5.49774593 C38.9390553,5.94766681 42.3250509,9.27715253 42.68149,13.5063613 L40.0974531,13.5063613 L40.0974531,15.3061635 L42.68149,15.3061635 C42.3250509,19.535491 38.9390553,22.9549371 34.751101,23.3148976 M33.8600619,3.6079833 C27.9791098,3.6079833 23.1673576,8.46727121 23.1673576,14.4063218 C23.1673576,20.3453723 27.9791098,25.2046602 33.8600619,25.2046602 C39.741014,25.2046602 44.5527662,20.3453723 44.5527662,14.4063218 C44.5527662,8.46727121 39.741014,3.6079833 33.8600619,3.6079833" id="Fill-9"></path>
                <path d="M32.9689875,14.0463969 L30.5631114,16.4760409 L31.8105897,17.7358431 L34.4838245,15.0361991 C34.6619853,14.8561596 34.7510657,14.6763574 34.7510657,14.4062387 L34.7510657,9.90702989 L32.9689875,9.90702989 L32.9689875,14.0463969 Z" id="Fill-11"></path>
            </g>
        </g>
    </g>
</svg>